HIERARCHY
ROOT Hips
{
	OFFSET 0.00000 0.00000 0.00000
	CHANNELS 6 Xposition Yposition Zposition Zrotation Yrotation Xrotation 
	JOINT LHipJoint
	{
		OFFSET 0 0 0
		CHANNELS 3 Zrotation Yrotation Xrotation
		JOINT LeftHip
		{
			OFFSET 1.24777 -1.64261 0.71711
			CHANNELS 3 Zrotation Yrotation Xrotation
			JOINT LeftKnee
			{
				OFFSET 2.49329 -6.85026 0.00000
				CHANNELS 3 Zrotation Yrotation Xrotation
				JOINT LeftAnkle
				{
					OFFSET 2.36770 -6.50520 0.00000
					CHANNELS 3 Zrotation Yrotation Xrotation
					JOINT LeftToe
					{
						OFFSET 0.14820 -0.40718 2.21395
						CHANNELS 3 Zrotation Yrotation Xrotation
						End Site
						{
							OFFSET 0.00000 -0.00000 1.13491
						}
					}
				}
			}
		}
	}
	JOINT RHipJoint
	{
		OFFSET 0 0 0
		CHANNELS 3 Zrotation Yrotation Xrotation
		JOINT RightHip
		{
			OFFSET -1.18320 -1.64261 0.71711
			CHANNELS 3 Zrotation Yrotation Xrotation
			JOINT RightKnee
			{
				OFFSET -2.46559 -6.77417 0.00000
				CHANNELS 3 Zrotation Yrotation Xrotation
				JOINT RightAnkle
				{
					OFFSET -2.38450 -6.55136 0.00000
					CHANNELS 3 Zrotation Yrotation Xrotation
					JOINT RightToe
					{
						OFFSET -0.17454 -0.47954 2.02925
						CHANNELS 3 Zrotation Yrotation Xrotation
						End Site
						{
							OFFSET -0.00000 -0.00000 1.05076
						}
					}
				}
			}
		}
	}
	JOINT lowerback
	{
		OFFSET 0 0 0
		CHANNELS 3 Zrotation Yrotation Xrotation
		JOINT Chest
		{
			OFFSET -0.02305 1.98660 0.00319
			CHANNELS 3 Zrotation Yrotation Xrotation
			JOINT Chest2
			{
				OFFSET -0.00718 1.99033 -0.00533
				CHANNELS 3 Zrotation Yrotation Xrotation
				JOINT lowerneck
				{
					OFFSET 0 0 0
					CHANNELS 3 Zrotation Yrotation Xrotation
					JOINT Neck
					{
						OFFSET 0.00095 1.61015 0.10698
						CHANNELS 3 Zrotation Yrotation Xrotation
						JOINT Head
						{
							OFFSET -0.01060 1.59924 0.01317
							CHANNELS 3 Zrotation Yrotation Xrotation
							End Site
							{
								OFFSET -0.00458 1.63304 -0.00592
							}
						}
					}
				}
				JOINT LeftCollar
				{
					OFFSET 0 0 0
					CHANNELS 3 Zrotation Yrotation Xrotation
					JOINT LeftShoulder
					{
						OFFSET 3.05381 1.47088 -0.01697
CHANNELS 3 Zrotation Xrotation Yrotation
						JOINT LeftElbow
						{
OFFSET 0 -4.251060 0.000000
CHANNELS 3 Zrotation Xrotation Yrotation
							JOINT LeftWrist
							{
OFFSET 0 -3.275920 0.000000
CHANNELS 3 Zrotation Xrotation Yrotation
								JOINT lhand
								{
									OFFSET 0 0 0
CHANNELS 3 Zrotation Xrotation Yrotation
									JOINT LFingers
									{
OFFSET 0 -0.657810 0.000000
CHANNELS 3 Zrotation Xrotation Yrotation
										End Site
										{
OFFSET 0 -0.530340 0.000000
										}
									}
								}
								JOINT LThumb
								{
OFFSET 0 0.000000 0.000000
CHANNELS 3 Zrotation Xrotation Yrotation
									End Site
									{
OFFSET 0 -0.538440 0.538440
									}
								}
							}
						}
					}
				}
				JOINT RightCollar
				{
					OFFSET 0 0 0
					CHANNELS 3 Zrotation Yrotation Xrotation
					JOINT RightShoulder
					{
						OFFSET -2.83695 1.31619 -0.22674
CHANNELS 3 Zrotation Xrotation Yrotation
						JOINT RightElbow
						{
OFFSET 0 -4.460730 0.000000
CHANNELS 3 Zrotation Xrotation Yrotation
							JOINT RightWrist
							{
OFFSET 0 -3.444160 0.000000
CHANNELS 3 Zrotation Xrotation Yrotation
								JOINT rhand
								{
									OFFSET 0 0 0
CHANNELS 3 Zrotation Xrotation Yrotation
									JOINT RFingers
									{
OFFSET 0 -0.616510 0.000000
CHANNELS 3 Zrotation Xrotation Yrotation
										End Site
										{
OFFSET 0 -0.497050 0.000000
										}
									}
								}
								JOINT RThumb
								{
OFFSET 0 0.000000 0.000000
CHANNELS 3 Zrotation Xrotation Yrotation
									End Site
									{
OFFSET 0 -0.504640 0.504640
									}
								}
							}
						}
					}
				}
			}
		}
	}
}
MOTION
Frames: 9
Frame Time: 0.008333333333333333
8.260635 13.906744 -3.510790 -182.956763 46.918849 -180.663452 0.000000 0.000000 0.000000 -13.212777 -16.478605 -30.631408 19.870925 19.999619 89.622608 3.264820 -22.828210 -34.211438 0.099277 -2.028037 -5.583261 0.000000 0.000000 0.000000 -10.163544 6.860550 -49.316819 -11.274868 -18.066883 63.670857 -0.314908 4.821882 -10.038186 -4.277385 12.520589 -37.599460 1.689842 1.053843 13.257737 7.135612 2.591934 7.093691 6.210802 1.592683 -0.222357 -5.997046 -15.923691 -2.083159 8.812710 -21.628836 8.844301 2.322255 -10.450533 4.612001 0.000000 0.000000 0.000000 -1.430626 14.312165 -47.797817 37.010840 -46.194975 16.248091 24.981179 -32.546311 2.395764 0.000000 0.000000 0.000000 -7.125000 0.000000 0.000000 -1.235567 27.336454 -0.530269 0.000000 0.000000 0.000000 2.824645 -34.242179 50.126895 -153.713265 -37.490198 -110.938281 -32.729654 -33.213398 20.586481 0.000000 0.000000 0.000000 7.125000 0.000000 0.000000 -4.465396 53.985767 0.989458
8.321460 13.911659 -3.466612 -182.871915 46.513728 -180.646736 0.000000 0.000000 0.000000 -12.551527 -16.559599 -30.403390 19.730850 19.998201 89.212901 3.110365 -24.652381 -34.005978 0.053782 -1.490629 -4.099865 0.000000 0.000000 0.000000 -9.904714 6.938206 -49.304769 -11.416392 -18.132898 64.126453 -0.321297 4.220507 -10.091492 -4.239402 12.472360 -37.424221 1.708574 0.735669 13.081523 6.915777 2.139805 7.023393 6.028052 1.360640 -0.149965 -5.835282 -15.717802 -1.893859 8.824490 -21.345911 8.356802 2.368917 -10.333669 4.394595 0.000000 0.000000 0.000000 -1.287016 14.747067 -47.028922 36.119993 -45.594974 15.608313 24.761346 -32.765181 2.374643 0.000000 0.000000 0.000000 -7.125000 0.000000 0.000000 -1.404394 27.364253 -0.601873 0.000000 0.000000 0.000000 2.126055 -35.176429 50.678308 -153.314044 -37.877993 -110.694334 -31.719603 -33.143412 20.035580 0.000000 0.000000 0.000000 7.125000 0.000000 0.000000 -3.457529 53.152642 0.695016
8.364540 13.953304 -3.429603 -182.885624 46.316442 -180.655546 0.000000 0.000000 0.000000 -12.123759 -16.452444 -30.014568 19.410868 19.991673 88.277404 2.937864 -26.236639 -33.725656 0.020567 -0.926048 -2.545403 0.000000 0.000000 0.000000 -9.691611 7.344130 -49.033606 -11.371324 -18.112016 63.981574 -0.308349 3.432564 -9.870418 -4.209569 12.434147 -37.285593 1.550225 0.442360 12.838037 6.648076 1.682964 6.881164 5.893399 1.116235 -0.123133 -5.728044 -15.546438 -1.771082 8.774360 -21.110095 8.054177 2.386420 -10.234369 4.247850 0.000000 0.000000 0.000000 -1.158302 15.074742 -46.422063 35.297289 -45.023212 15.023277 24.577785 -32.402692 2.485132 0.000000 0.000000 0.000000 -7.125000 0.000000 0.000000 -1.545437 27.246476 -0.666670 0.000000 0.000000 0.000000 1.271438 -36.536006 50.714718 -153.145693 -38.039899 -110.590772 -30.780175 -33.204755 19.497592 0.000000 0.000000 0.000000 7.125000 0.000000 0.000000 -2.546917 52.360467 0.461814
8.387410 14.033171 -3.399668 -182.915397 46.363862 -180.598013 0.000000 0.000000 0.000000 -11.913267 -15.990925 -29.623304 18.951909 19.973403 86.934337 2.817466 -27.027641 -33.461144 0.010417 -0.657598 -1.807208 0.000000 0.000000 0.000000 -9.468995 8.086637 -48.517074 -11.115227 -17.990914 63.155204 -0.274174 2.500058 -9.341440 -4.181028 12.397482 -37.152912 1.272816 0.177454 12.525401 6.357667 1.237373 6.664047 5.798209 0.870032 -0.141808 -5.668555 -15.409715 -1.714326 8.687814 -20.922682 7.895319 2.383153 -10.153783 4.160707 0.000000 0.000000 0.000000 -1.117845 15.302658 -45.804799 34.597621 -44.522470 14.530564 24.509400 -31.476483 2.723229 0.000000 0.000000 0.000000 -7.125000 0.000000 0.000000 -1.597877 26.986531 -0.699089 0.000000 0.000000 0.000000 0.323307 -38.184892 50.271819 -153.169082 -38.017477 -110.605210 -29.971060 -33.348829 19.030317 0.000000 0.000000 0.000000 7.125000 0.000000 0.000000 -1.780250 51.681574 0.293470
8.388735 14.149704 -3.377659 -182.878957 46.684821 -180.415708 0.000000 0.000000 0.000000 -11.877152 -15.128023 -29.275547 18.382091 19.936532 85.264584 2.801736 -26.818879 -33.318692 0.017344 -0.844503 -2.321025 0.000000 0.000000 0.000000 -9.168845 9.084617 -47.791274 -10.648649 -17.758061 61.634317 -0.220158 1.544017 -8.454098 -4.142458 12.347640 -36.973058 0.960237 -0.069559 12.166397 6.070791 0.806546 6.390875 5.722412 0.628287 -0.195395 -5.618907 -15.297897 -1.706495 8.564629 -20.769399 7.823018 2.360246 -10.087072 4.107844 0.000000 0.000000 0.000000 -1.204750 15.440977 -45.079433 34.044656 -44.117618 14.144240 24.595063 -30.335890 3.033937 0.000000 0.000000 0.000000 -7.125000 0.000000 0.000000 -1.533310 26.643111 -0.683037 0.000000 0.000000 0.000000 -0.695827 -39.980461 49.475634 -153.286301 -37.904787 -110.677285 -29.363150 -33.520144 18.688238 0.000000 0.000000 0.000000 7.125000 0.000000 0.000000 -1.212116 51.187948 0.185099
8.366621 14.301969 -3.365289 -182.749144 47.339485 -180.099426 0.000000 0.000000 0.000000 -11.987658 -13.913076 -28.906187 17.689396 19.870388 83.229973 2.858310 -25.869024 -33.250575 0.042809 -1.327433 -3.650337 0.000000 0.000000 0.000000 -8.753469 10.224542 -46.898238 -9.974236 -17.393604 59.399865 -0.153204 0.732097 -7.155049 -4.082433 12.269260 -36.691373 0.654290 -0.300147 11.787918 5.799763 0.398129 6.079191 5.654737 0.397505 -0.279727 -5.538716 -15.199615 -1.733406 8.378617 -20.632818 7.813919 2.309335 -10.026925 4.071439 0.000000 0.000000 0.000000 -1.408863 15.498841 -44.277792 33.646527 -43.821036 13.867753 24.857260 -29.437515 3.376352 0.000000 0.000000 0.000000 -7.125000 0.000000 0.000000 -1.335668 26.259156 -0.606854 0.000000 0.000000 0.000000 -1.779768 -41.815876 48.463843 -153.409643 -37.785736 -110.752962 -29.020265 -33.681550 18.515446 0.000000 0.000000 0.000000 7.125000 0.000000 0.000000 -0.891363 50.933363 0.130362
8.320291 14.487229 -3.364031 -182.541860 48.403205 -179.658970 0.000000 0.000000 0.000000 -12.220123 -12.450104 -28.416454 16.842746 19.757937 80.732551 2.918958 -24.686170 -33.149217 0.075589 -1.772395 -4.877042 0.000000 0.000000 0.000000 -8.216151 11.363178 -45.910050 -9.105844 -16.872857 56.451659 -0.085336 0.263518 -5.402608 -3.996205 12.155312 -36.283647 0.357379 -0.503950 11.404245 5.547122 0.028139 5.739428 5.595087 0.186687 -0.392849 -5.402807 -15.104243 -1.794134 8.100917 -20.496790 7.870925 2.220942 -9.966080 4.045844 0.000000 0.000000 0.000000 -1.671660 15.489820 -43.521935 33.399836 -43.635104 13.697219 25.269728 -29.105030 3.738422 0.000000 0.000000 0.000000 -7.125000 0.000000 0.000000 -1.026660 25.846745 -0.476256 0.000000 0.000000 0.000000 -2.907887 -43.607781 47.390880 -153.471338 -37.725962 -110.790774 -28.951302 -33.806409 18.518850 0.000000 0.000000 0.000000 7.125000 0.000000 0.000000 -0.820820 50.924638 0.119807
8.250798 14.699451 -3.374060 -182.289973 49.938567 -179.094497 0.000000 0.000000 0.000000 -12.559097 -10.833292 -27.736933 15.815118 19.573944 77.679910 2.976125 -23.569540 -33.082610 0.098247 -2.020881 -5.563303 0.000000 0.000000 0.000000 -7.564251 12.336397 -44.943690 -8.078534 -16.175307 52.842785 -0.029961 0.330081 -3.146688 -3.892798 12.016353 -35.789784 0.055139 -0.664034 11.007019 5.310283 -0.282645 5.375378 5.546995 0.006274 -0.527918 -5.210321 -15.004068 -1.905005 7.723945 -20.350484 8.004819 2.091886 -9.899018 4.035541 0.000000 0.000000 0.000000 -1.896200 15.429294 -42.965217 33.292925 -43.554011 13.623445 25.721188 -29.330104 4.126859 0.000000 0.000000 0.000000 -7.125000 0.000000 0.000000 -0.692127 25.400808 -0.328272 0.000000 0.000000 0.000000 -4.045790 -45.301785 46.402596 -153.437083 -37.759247 -110.769767 -29.082680 -33.874500 18.658040 0.000000 0.000000 0.000000 7.125000 0.000000 0.000000 -0.931084 51.103288 0.139990
8.160824 14.928920 -3.394954 -182.004768 51.985731 -178.381265 0.000000 0.000000 0.000000 -13.002854 -9.120852 -26.849899 14.601619 19.285272 74.032948 3.080606 -22.437731 -33.262415 0.112103 -2.158658 -5.944385 0.000000 0.000000 0.000000 -6.784405 12.958539 -44.164860 -6.955271 -15.292033 48.701366 0.001813 1.071750 -0.292124 -3.796644 11.884680 -35.325435 -0.260183 -0.764739 10.569545 5.088710 -0.514097 4.988350 5.512270 -0.133503 -0.670475 -4.987635 -14.893521 -2.091345 7.270973 -20.187336 8.217820 1.930016 -9.821885 4.050585 0.000000 0.000000 0.000000 -1.966682 15.333179 -42.739232 33.320905 -43.575285 13.642754 26.011304 -29.724885 4.524039 0.000000 0.000000 0.000000 -7.125000 0.000000 0.000000 -0.482705 24.948352 -0.234002 0.000000 0.000000 0.000000 -5.163382 -46.872296 45.606354 -153.308050 -37.883851 -110.690648 -29.272587 -33.874942 18.863290 0.000000 0.000000 0.000000 7.125000 0.000000 0.000000 -1.090209 51.365588 0.170971
